<svg width="48" height="49" viewBox="0 0 48 49" fill="none" xmlns="http://www.w3.org/2000/svg">
<g clip-path="url(#clip0_319_27531)">
<mask id="mask0_319_27531" style="mask-type:luminance" maskUnits="userSpaceOnUse" x="0" y="0" width="48" height="49">
<path d="M48 0.875H0V48.875H48V0.875Z" fill="white"/>
</mask>
<g mask="url(#mask0_319_27531)">
<path d="M35.7248 43.7405C30.2642 60.0891 15.6991 65.1313 7.99818 44.8304C6.9358 42.0395 9.7046 41.0047 11.6422 39.7716C12.9688 38.9294 13.6679 38.2028 13.5853 37.4487C13.2 33.9038 11.5541 24.0285 11.5541 24.0285L11.389 23.7093C11.389 23.7093 11.4275 23.6212 11.2679 23.7753C11.1028 23.9405 10.723 25.6579 9.23121 25.6579C7.88259 25.6579 6.52295 25.0579 5.87341 20.9074C5.62571 19.4047 5.75782 15.4634 7.43121 14.7478C8.11928 14.4561 8.75231 14.3515 9.36882 14.7038C9.99084 15.0561 8.65323 13.4927 15.534 7.76798C20.0037 4.03587 27.0661 3.49091 29.9174 4.12394C32.7688 4.75697 35.6147 6.14963 36.8752 9.10559C38.4055 12.6836 35.4496 15.3973 36.1046 23.5551C35.9835 26.5056 36.1486 32.979 28.0349 35.1478C26.4936 35.5606 26.9725 37.812 29.2844 38.3625C32.9725 39.5184 35.7248 42.3423 35.7248 43.7515" fill="white"/>
<path fill-rule="evenodd" clip-rule="evenodd" d="M35.7248 18.3372L35.7303 18.2601C35.956 16.2564 36.1817 14.3133 37.222 12.5684C37.5798 12.8106 37.5358 13.1188 37.4257 13.4051C36.3303 16.2234 36.4349 19.1518 36.534 22.0803L36.556 22.8509C36.6716 26.506 35.7578 29.8307 33.3248 32.6216C32.4771 33.5904 31.3541 34.2619 30.2147 34.8399C29.0367 35.4454 28.789 35.9463 29.1578 37.2399L29.2018 37.383C29.2789 37.5977 29.356 37.8179 29.1468 38.0326C28.8991 38.2858 28.6239 38.2142 28.3321 38.1317L28.2991 38.1262C25.5699 37.362 23.0107 36.0861 20.7578 34.3665C20.4275 34.1243 20.1633 33.7996 19.9046 33.4803L19.8881 33.4583C19.7505 33.2931 19.7229 33.0289 19.9156 32.8858C20.0973 32.7482 20.2349 32.8583 20.3945 32.9849L20.4495 33.0344C21.6515 34.0097 23.1103 34.6158 24.6495 34.7794C25.3872 34.8564 26.1138 34.8289 26.8514 34.8014C27.2587 34.7849 27.6661 34.7684 28.0789 34.7739C28.6404 34.7739 29.1083 34.5151 29.5486 34.2674L29.7028 34.1794C31.233 33.3262 32.6917 32.3739 33.6771 30.8381C34.5633 29.4619 35.1028 27.9647 35.4165 26.3849C35.8129 24.3977 35.7798 22.383 35.7468 20.3408C35.7303 19.6803 35.7193 19.0087 35.7193 18.3372H35.7248ZM8.01469 14.1867C9.22019 14.0931 9.88625 14.8032 10.4532 15.6344C11.1252 16.65 11.5477 17.8099 11.6862 19.0197C11.7138 19.2234 11.7413 19.4381 11.6202 19.6418C11.3725 19.6748 11.3505 19.4766 11.345 19.3335C11.3174 18.194 10.811 17.2032 10.3046 16.2454C9.94129 15.5574 9.41285 14.8913 8.57615 14.7262C7.62937 14.5335 6.75964 15.3867 6.33028 16.4986C5.53212 18.5684 5.66973 20.6051 6.40735 22.6087C6.72661 23.484 7.12845 24.3757 7.93762 24.9867C8.7523 25.6087 9.73762 25.4986 10.3376 24.6729L10.4477 24.5353C10.5578 24.3922 10.6679 24.2546 10.7229 24.095C10.8385 23.7757 11.0202 23.4785 11.345 23.5225C11.7193 23.5775 11.7853 23.9794 11.8239 24.2931C12.1653 27.1767 12.5691 30.0526 13.0349 32.9188L13.3596 35.0546C13.5028 35.9959 13.6679 37.35 13.5578 37.9225C13.5507 37.9626 13.5452 38.003 13.5413 38.0436C13.5193 38.1977 13.5083 38.3188 13.3101 38.3463C13.0404 38.3904 12.9248 38.2362 12.8862 37.994C12.7596 37.0583 12.7211 36.695 12.6661 35.2638C12.6165 33.8766 12.3578 32.5115 12.0936 31.1408L11.8184 29.6546C11.5321 27.9592 11.2514 26.2418 11.2239 24.3151L11.1138 24.4803C10.6954 25.1023 10.3596 25.6087 9.76515 25.8014C9.32384 25.9705 8.84022 25.9949 8.38411 25.8713C7.92799 25.7476 7.52297 25.4822 7.22753 25.1133C6.45187 24.2372 5.90698 23.1815 5.64221 22.0418C5.17982 20.1702 5.09726 18.3482 5.69175 16.5041C5.97799 15.6179 6.99634 14.0436 8.01469 14.1922V14.1867ZM9.91927 21.2051C10.1615 21.3812 10.3817 21.5353 10.5798 20.9078C10.5193 18.5849 9.77065 17.0986 8.60918 17.0381C9.2257 17.8418 9.82019 18.6234 9.87524 19.7078C9.64618 19.5908 9.44523 19.4256 9.28625 19.2234C9.17615 19.1023 9.06606 18.9812 8.92845 18.8931L8.76331 18.761C8.49909 18.5629 8.22937 18.3537 7.78349 18.5133C7.99267 18.8326 8.27891 19.0638 8.57065 19.284C8.90093 19.5427 9.2312 19.7959 9.42937 20.1922C8.84588 20.6161 8.59267 21.1665 8.89542 21.8381C9.15964 22.4161 9.55047 22.895 10.3211 22.928C10.2881 22.5812 10.0624 22.328 9.8367 22.0803C9.56148 21.783 9.30276 21.4968 9.42386 21.0564C9.60001 20.9739 9.76515 21.095 9.91927 21.2051Z" fill="black"/>
<path d="M58.0954 73.4816L-13.6679 73.2889C-13.6679 73.2889 -11.0972 56.5495 -4.23303 48.7935C-1.15597 45.3201 1.40367 41.8907 8.27889 39.4247C9.45688 39.0008 11.2018 34.5807 12.1376 34.1183C13.0238 33.6779 12.4404 36.9917 13.2605 37.6632C14.933 39.0588 16.6986 40.3388 18.545 41.4944C21.7872 43.5421 23.2789 47.8192 23.2789 47.8192C23.2789 47.8192 24.7321 43.6962 25.9431 41.6706C26.7963 40.2394 29.6477 36.0339 29.6477 36.0339C29.6477 36.0339 34.8605 37.6632 36.7927 39.0999C37.9651 39.9696 37.2771 39.777 42.5945 42.8155C47.2128 45.4522 51.7431 52.6742 54.1541 58.6687C56.7193 65.043 58.0954 73.4761 58.0954 73.4761V73.4816Z" fill="white"/>
<path fill-rule="evenodd" clip-rule="evenodd" d="M57.7431 73.4819C57.3743 71.9956 57.055 70.5094 56.7358 69.0176C56.5982 68.3571 56.4605 67.6965 56.3119 67.047C55.8605 65.0103 55.2661 63.0286 54.611 61.058C53.9799 59.1409 53.2071 57.2734 52.2991 55.4708C51.3971 53.6303 50.367 51.8553 49.2165 50.1589C47.5651 47.7754 45.7706 45.5075 43.3927 43.8066C41.6642 42.5736 39.7486 41.6488 37.8385 40.7296C37.1615 40.3993 36.4679 40.5534 35.7908 40.702L35.5706 40.7571C35.0257 40.8672 34.4917 40.9883 33.9523 41.1094C33.3059 41.2566 32.6582 41.3979 32.0092 41.5332C31.7284 41.5883 31.6239 41.7534 31.5413 41.9846L31.211 42.9479C30.9853 43.6195 30.7541 44.291 30.545 44.9681C30.4018 45.4195 30.1596 45.6176 29.6807 45.6066C29.2734 45.6011 28.8661 45.6066 28.4587 45.6176C28.0183 45.6231 27.5835 45.6341 27.1486 45.6231C26.378 45.6066 25.9982 45.8819 26.0917 46.8066C26.1963 47.7975 26.1908 48.7938 26.1908 49.7956C26.1908 50.3846 26.1908 50.9736 26.2073 51.5681C26.2624 53.0819 26.2624 54.6121 26.2349 56.1204C26.1798 58.9442 26.1798 61.7681 26.1798 64.5975C26.1853 67.5259 26.1908 70.4598 26.1248 73.4158C25.9132 73.4777 25.6888 73.4815 25.4752 73.4268C25.4037 70.4488 25.3706 67.5204 25.3872 64.5919C25.3982 62.8415 25.3872 61.0855 25.3817 59.3296C25.3596 55.8121 25.3431 52.2947 25.4807 48.7773C25.4917 48.5846 25.4257 48.4085 25.211 48.403C25.0855 48.5434 24.9589 48.6829 24.8312 48.8213C24.1266 49.5919 23.433 50.3516 23.1028 51.458C22.6459 50.9296 22.4587 50.313 22.2716 49.7241C22.0679 49.069 21.8697 48.4415 21.3358 47.9681C21.2257 48.2874 21.2257 48.5791 21.2257 48.8764V50.6929L21.2367 54.491L21.2312 59.1369C21.2257 62.4947 21.2202 65.847 21.2312 69.1993C21.2367 69.6066 21.2312 70.014 21.2147 70.4158C21.1927 71.4397 21.1651 72.4635 21.3248 73.4764H20.5431C20.4709 72.331 20.436 71.1836 20.4385 70.036V48.0727C20.4385 46.7516 20.0147 46.3773 18.7541 46.036C16.6624 45.4855 14.5596 44.8855 12.9523 43.3002C12.3578 42.7167 11.7193 43.0085 11.1908 43.2452L11.1248 43.2782C10.6514 43.4984 10.1615 43.658 9.67156 43.8176C9.01101 44.0378 8.35046 44.258 7.73945 44.6048C7.61285 44.6708 7.49725 44.7479 7.37615 44.825C7.14693 44.9796 6.90365 45.1123 6.64954 45.2213L6.52844 45.2764C6.36331 45.3534 6.20367 45.425 6.01652 45.2488C5.80734 45.0617 5.81285 44.8635 5.90642 44.6158L6.22019 43.6745C6.49541 42.8378 6.77065 42.0066 7.13395 41.1975L7.18899 41.0874C7.26606 40.9608 7.33762 40.8341 7.26606 40.6635C7.04587 40.5149 6.84221 40.625 6.66055 40.7241L6.56147 40.7791L6.44037 40.8341L6.33028 40.8892C3.99633 42.0617 1.66239 43.2341 -0.264217 45.0727C-1.63797 46.3615 -2.90796 47.7567 -4.06238 49.2452C-6.28039 52.1916 -8.08946 55.4246 -9.44036 58.8562C-10.7394 62.0929 -11.8624 65.4066 -12.4294 68.8745C-12.5394 69.5131 -12.6385 70.1516 -12.7431 70.7956L-13.178 73.4213C-13.4807 73.4764 -13.7725 73.4764 -14.1193 73.4764C-13.8661 71.6598 -13.5743 69.8433 -13.2275 68.0323C-13.1009 67.3773 -12.9358 66.7332 -12.7651 66.0892C-12.6661 65.6929 -12.5615 65.302 -12.4734 64.9057C-12.1612 63.6661 -11.7883 62.4426 -11.356 61.2397L-11.3009 61.091C-10.1569 57.6344 -8.60467 54.3267 -6.67706 51.2378C-5.74703 49.7566 -4.69768 48.3538 -3.53945 47.0433C-1.4477 44.6598 0.864223 42.5296 3.76514 41.1919C5.33945 40.4653 6.80367 39.5956 8.25688 38.6708C8.66973 38.4066 8.86239 38.0268 9.06055 37.647C9.13762 37.5094 9.20918 37.3663 9.29725 37.2286C10.1064 35.9351 10.9486 34.6745 12.2202 33.7718L12.3083 33.7057C12.4679 33.5791 12.622 33.4635 12.8422 33.5956C13.0404 33.7057 13.0294 33.8764 13.0239 34.058V34.2121C13.0569 35.1259 13.1339 36.0341 13.211 36.9424C13.2385 37.2341 13.3596 37.4929 13.6514 37.625C14.8844 38.1919 15.9358 39.0176 16.9872 39.8488C17.6202 40.3442 18.2532 40.8397 18.9248 41.28C20.5441 42.3082 21.8861 43.7183 22.833 45.3864C22.9431 45.5846 23.0257 45.7938 23.1193 46.036L23.2624 46.3993C23.7743 44.3351 24.8752 42.6452 25.9762 40.9663L26.6202 39.9754C26.7303 39.7993 26.8183 39.6121 26.9064 39.425C27.0275 39.1718 27.1486 38.9186 27.3358 38.6874C27.4712 38.5225 27.5557 38.3218 27.5792 38.1097C27.6027 37.8977 27.564 37.6834 27.4679 37.4929C27.3468 37.2341 27.2807 36.9644 27.3853 36.6837C27.8532 36.5406 28.1009 36.8103 28.3651 37.091L28.4202 37.1461C28.9156 36.8268 28.8605 36.414 28.6018 35.9736C28.5138 35.8195 28.4367 35.6708 28.5688 35.5222C28.6954 35.3846 28.8661 35.4011 29.0312 35.4507C31.0734 36.0397 33.1046 36.6617 34.9872 37.6855C35.2459 37.8286 35.5156 37.9608 35.7853 38.0874C36.5174 38.4397 37.2495 38.7919 37.7835 39.3809C38.6312 40.3167 39.7156 40.8231 40.8 41.3296C41.4495 41.6378 42.0936 41.9351 42.6936 42.3314C44.0395 43.1713 45.2843 44.1631 46.4037 45.2874C47.6697 46.625 48.8532 48.0397 49.8826 49.5589C50.7853 50.88 51.644 52.2341 52.3927 53.6598C53.4123 55.6014 54.2952 57.6118 55.0349 59.6764C55.7229 61.5864 56.3119 63.5241 56.8349 65.4837C57.2092 66.9039 57.4514 68.3461 57.6881 69.7938C57.8917 71.0048 58.0899 72.2158 58.3706 73.4268C58.1945 73.4819 58.0018 73.4819 57.7431 73.4819ZM21.8367 45.1442C20.5657 43.6213 19.0761 42.295 17.4165 41.2085C16.9196 40.8804 16.4435 40.5219 15.9908 40.1351C15.3303 39.5956 14.6697 39.0507 13.8881 38.6929C12.9633 38.2745 12.4679 37.68 12.4349 36.6837V36.5516C12.4294 36.3369 12.4239 36.1222 12.3963 35.913C12.3523 35.4947 11.8624 35.2745 11.6037 35.5883C11.5156 35.6984 11.411 35.7864 11.3119 35.88C11.1669 35.9995 11.0391 36.1384 10.9321 36.2929C9.66606 38.3075 8.41101 40.3222 7.49725 42.5296C7.37615 42.8268 7.29358 43.2176 7.54679 43.4598C7.75046 43.658 8.00918 43.5534 8.26239 43.4488C8.30613 43.4298 8.35017 43.4114 8.3945 43.3938L9.46789 42.9864C10.189 42.7002 10.9156 42.4195 11.6587 42.1938C12.4459 41.9571 13.0459 42.0947 13.6018 42.7167C14.1906 43.3433 14.9105 43.832 15.7101 44.1479C16.5853 44.5332 17.4826 44.825 18.3798 45.1222C19.1615 45.3809 19.9431 45.6397 20.7083 45.9534C21.6495 46.3387 22.5248 46.8397 22.5138 48.0727C22.5138 48.2653 22.5578 48.458 22.8771 48.4305C23.0367 47.9901 23.0367 47.5497 22.8165 47.1094L22.5303 46.5259C22.3101 46.0855 22.0899 45.6341 21.8367 45.1442ZM31.8165 37.1681L32.3119 37.3442L34.7615 38.4727C35.2056 38.6743 35.6497 38.8761 36.0936 39.0782C36.2697 39.1608 36.4624 39.2433 36.4624 39.469C36.4624 39.7112 36.2697 39.7442 36.0936 39.7773L35.9945 39.7993C35.728 39.8633 35.4619 39.9294 35.1963 39.9975C34.5138 40.1681 33.8312 40.3387 33.1321 40.4433C31.6679 40.6635 30.8752 41.2525 30.4734 42.6617C30.4239 42.8378 30.3633 43.014 30.2972 43.1846C30.2092 43.4323 30.1266 43.68 30.0771 43.9222C29.9395 44.5828 29.5156 44.6488 29.0037 44.6929L28.0294 44.803C27.4954 44.858 26.9615 44.9241 26.422 44.9571C25.9817 44.9846 25.7284 45.2103 25.5633 45.5626C25.4367 45.8268 25.2936 46.08 25.156 46.3332C24.8917 46.8121 24.622 47.291 24.4624 47.8195C24.3853 48.0617 24.2752 48.425 23.8184 48.414C23.9284 47.0929 24.2587 45.8103 24.7817 44.5993C25.1395 43.7736 25.6404 43.0415 26.1413 42.3149C26.5596 41.6984 26.978 41.0819 27.3138 40.4213C27.9303 39.1828 28.833 38.1975 29.7468 37.2121L30.033 36.8984C30.2257 36.6837 30.3578 36.6231 30.6165 36.7222C31.0184 36.8874 31.4202 37.0305 31.8275 37.1736L31.8165 37.1681Z" fill="black"/>
<path fill-rule="evenodd" clip-rule="evenodd" d="M36 52.6967C35.6807 50.7481 35.7248 48.8985 36.622 47.0215C38.2239 48.827 38.1853 50.9297 38.1523 52.983L38.1413 53.8472C38.4165 53.9518 38.5651 53.8527 38.6973 53.7646L38.8294 53.6875C39.5174 53.3848 39.7266 53.5114 39.8422 54.2765C40.0514 55.6637 40.0624 57.0674 40.0734 58.4655L40.0789 59.071C40.0789 59.4508 39.8752 59.7261 39.611 59.9022C38.9037 60.4269 38.264 61.037 37.7064 61.7187C37.3431 62.1206 36.9798 62.5279 36.5835 62.8967C36.0385 63.3921 35.1138 63.5573 34.5138 63.1004L33.9358 62.6655C33.0661 62.016 32.2018 61.3719 31.3762 60.6619C30.9774 60.3542 30.6727 59.9411 30.4967 59.4693C30.3206 58.9975 30.2801 58.4858 30.3798 57.9921C30.4734 57.4196 30.5229 56.8362 30.5725 56.2472C30.6165 55.7848 30.6551 55.3224 30.7156 54.86C30.8697 53.7206 31.0844 53.5885 32.1193 54.0398C32.2129 54.0784 32.3064 54.1059 32.4 54.1279C32.6477 54.194 32.9064 54.2655 33.1321 54.5683L33.2422 53.7426C33.3303 53.082 33.4129 52.471 33.4074 51.849V51.816C33.4074 51.7279 33.4073 51.6178 33.3633 51.5848C32.3725 50.9132 32.5541 50.0325 32.9945 49.1793L33.0496 49.0692C33.3741 48.5331 33.5962 47.9414 33.7046 47.3242C33.7046 47.2582 33.7651 47.1976 33.8147 47.1371L33.8807 47.06L33.9633 47.0765L34.0459 47.0985C34.1285 47.671 34.4312 48.1279 34.7285 48.5903C34.9817 48.9811 35.2349 49.3719 35.3615 49.8288C35.5046 50.3738 35.4165 50.8307 35.0257 51.1774C34.6404 51.5242 34.5853 51.9261 34.6404 52.3885L34.6789 52.7187C34.7119 52.9774 34.745 53.2417 34.756 53.5059C34.8055 54.4802 34.9541 54.6013 36.0165 54.4086C36.1211 53.8582 36.0881 53.3077 36 52.6967ZM37.6129 60.5132C37.6679 60.4582 37.734 60.4086 37.7945 60.3591C37.925 60.2421 38.0629 60.1336 38.2073 60.0343C38.978 59.5389 39.3523 58.9004 39.2202 57.9261C39.1486 57.3921 39.1651 56.8527 39.1651 56.3077C39.1762 56.027 39.1762 55.7463 39.1706 55.4655V55.3334C39.1706 55.0802 39.1706 54.8215 38.9505 54.6178C38.6973 54.6729 38.4606 54.783 38.2294 54.893C37.8991 55.0417 37.5688 55.1903 37.211 55.1903C36.8037 55.1903 36.3963 55.2013 35.989 55.2178C34.6899 55.2619 33.3908 55.3114 32.1413 54.7885C31.7119 54.6068 31.5413 54.7444 31.5193 55.1958C31.4642 56.2967 31.3266 57.3866 31.1285 58.4655L31.1229 58.4875C31.0569 58.8343 30.9853 59.2417 31.3211 59.5224C32.5118 60.4981 33.7082 61.4669 34.9101 62.4288C35.3395 62.7811 35.7798 62.7041 36.0716 62.2857C36.3052 61.9742 36.5609 61.6799 36.8367 61.405C37.0954 61.1297 37.3651 60.8435 37.6073 60.5132H37.6129ZM36.4954 50.1811C36.5615 50.2141 36.633 50.2527 36.7046 50.2252L37.3651 50.1426C36.9248 50.594 36.6551 50.5995 36.2037 50.1866C36.3083 50.082 36.4018 50.1316 36.4954 50.1811Z" fill="black"/>
<path d="M36.9633 3.61721C37.789 5.80803 38.5486 7.45941 38.4055 9.76583C38.3505 10.6135 37.734 11.9512 37.5248 12.7658C37.233 13.8888 36.622 14.9181 36.5505 16.1071C36.5395 16.2557 36.4294 16.3548 36.1762 16.4044C35.7468 15.8429 35.6918 15.1273 35.6697 14.4667C35.6037 12.4025 35.5046 10.3493 35.0422 8.33464C34.9101 7.76766 34.6954 7.22821 34.4697 6.53464C34.2661 8.4062 34.2661 8.39519 32.5651 8.42271C29.5046 8.47776 26.4551 8.65941 23.4275 9.09977C22.5633 9.22638 22.4918 9.17134 21.8973 8.06491C21.2918 8.47225 21.3083 9.19886 21.0055 9.74932C20.0862 11.4502 18.9028 12.8924 17.1523 13.8172C16.5468 14.1365 15.3138 14.0924 13.9156 13.7236C13.3927 15.3915 12.1266 16.8392 12.5725 18.7989C12.6491 19.12 12.6542 19.4541 12.5877 19.7774C12.5211 20.1008 12.3844 20.4056 12.1872 20.6704C11.978 20.9677 11.7468 21.0172 11.4606 20.9291C11.1688 20.8411 11.3064 20.6044 11.3119 20.4007C11.3395 18.6062 10.9046 16.9053 9.88625 15.43C8.95047 14.0649 6.74313 14.4062 6.03854 15.9475C5.91194 16.2337 5.85139 16.575 5.40551 16.8502C5.32295 15.8429 5.30643 14.9236 5.41102 14.0154C5.62174 11.9002 6.08371 9.8176 6.78716 7.8117C7.82195 4.89465 9.63626 2.31692 12.033 0.358491C14.5836 -1.69787 17.6871 -2.95079 20.9505 -3.24151C21.611 -3.31307 22.2661 -3.43967 22.9266 -3.50573C25.2455 -3.72967 27.5851 -3.43252 29.7743 -2.636C32.7358 -1.59013 35.2899 0.0172062 36.6275 3.01721C36.7101 3.20987 36.8312 3.38601 36.9633 3.61721ZM10.7725 23.0649C10.9927 23.0044 11.1468 23.0154 11.2129 23.2245C11.6862 24.5567 11.7083 25.9438 11.6422 27.3255C11.6147 27.8539 10.7395 28.4924 10.0073 28.5915C9.30826 28.6796 8.65872 28.586 8.24588 27.931C8.0257 27.5842 8.19083 27.2154 8.31744 26.8025C7.53028 26.8245 6.84772 27.1328 6.14313 26.8025C5.20735 26.3677 5.11377 25.9548 5.85689 25.2612L6.04955 25.0245C5.71927 24.6062 5.17982 24.5456 4.83854 24.1713C4.45872 23.7695 4.40368 23.3897 4.71194 22.9878C5.11928 22.4649 5.76882 22.3658 6.20918 22.7126C6.37982 22.8337 6.52294 22.9989 6.62203 23.186C6.82915 23.6005 7.14959 23.9478 7.54615 24.1875C7.94271 24.4271 8.39912 24.5494 8.86239 24.5401C9.86423 24.5677 10.4202 23.9732 10.7725 23.0649Z" fill="black"/>
<path d="M24.1101 29.543C23.978 30.5173 24.9963 31.332 25.8936 30.9742C25.6569 30.1044 24.7486 30.0164 24.1101 29.543Z" fill="white"/>
<path fill-rule="evenodd" clip-rule="evenodd" d="M23.5211 30.4795C24.2037 31.7676 25.5028 32.1254 26.9174 31.3767C27.4954 31.0245 27.7376 30.463 27.9468 29.9401C28.0366 29.7267 28.0758 29.4954 28.0615 29.2643C28.0472 29.0333 27.9797 28.8086 27.8642 28.6079C27.0936 27.1878 26.1468 27.1492 25.0073 27.3639C23.7688 27.6006 22.9266 29.3676 23.5211 30.4795ZM25.8936 30.9749C24.9963 31.3327 23.978 30.518 24.1101 29.5437C24.3138 29.6923 24.5395 29.8024 24.7651 29.9125C25.2551 30.1492 25.734 30.3804 25.8936 30.9749Z" fill="black"/>
<path d="M23.2294 26.8574C23.6807 27.0611 23.6532 27.3693 23.4606 27.6831C23.3174 27.9308 23.1028 28.0794 22.8165 27.9033C22.5523 27.7382 22.6128 27.5125 22.7615 27.2978C22.8826 27.1327 22.9266 26.896 23.2294 26.8574Z" fill="black"/>
<path d="M28.0954 24.3593C27.8202 24.3703 27.6165 24.3373 27.4349 24.1997C27.2807 24.0896 27.2587 23.9355 27.2918 23.7648C27.3193 23.5832 27.4679 23.5557 27.611 23.5667C28.3872 23.6052 29.1523 23.5392 29.8734 23.2144C30.0496 23.1318 30.2037 23.2034 30.2973 23.3575C30.3908 23.5281 30.4073 23.7043 30.2532 23.8749C29.978 24.1942 29.6367 24.3703 29.2073 24.3593H28.1009H28.0954Z" fill="black"/>
<path d="M32.6752 20.4163C32.444 19.8934 32.1303 19.5796 31.5853 19.5521C31.255 19.5356 31.2 19.2714 31.0954 19.0126C31.2055 18.9301 31.2881 18.809 31.3872 18.8035C32.5486 18.7099 33.7211 18.7044 34.8826 18.798C35.2128 18.82 35.3945 19.2383 35.0587 19.3704C34.5083 19.5906 34.3706 20.097 34.0404 20.4603C33.589 20.9558 33.2037 20.9613 32.6752 20.4163ZM22.1615 18.787C22.833 18.8255 23.433 18.842 24.033 18.897C24.2312 18.9136 24.4734 18.9961 24.4734 19.2659C24.4734 19.5741 24.2202 19.5521 24.0165 19.5466C23.6697 19.5466 23.4826 19.6952 23.3284 20.02C23.1413 20.4273 22.9486 20.8622 22.3376 20.8347C21.7596 20.8071 21.5064 20.4383 21.3413 19.998C21.2202 19.6842 21.0661 19.5356 20.7358 19.5466C20.5486 19.5521 20.345 19.5356 20.3229 19.2769C20.3009 19.0016 20.4881 18.9466 20.7083 18.8805C21.1818 18.7544 21.6756 18.7226 22.1615 18.787Z" fill="black"/>
<path d="M25.8275 15.4199C25.5193 16.3447 25.4642 16.2676 24.5615 16.0585C23.1193 15.7282 21.6605 15.0016 20.1413 15.8218C20.0312 15.8823 19.8661 15.8768 19.7229 15.8658C19.5248 15.8548 19.2716 15.9374 19.167 15.6842C19.0514 15.4089 19.2495 15.2273 19.4587 15.1172C20.5431 14.5667 21.5229 13.7796 22.8936 13.9227C23.5982 13.9943 24.3248 13.7686 25.0569 13.7906C26.0917 13.8291 26.2899 14.1043 25.9376 15.1062L25.8275 15.4254V15.4199ZM35.0477 14.242C35.5761 14.6053 35.7358 15.1667 36.055 15.6181C36.1149 15.693 36.1447 15.7875 36.1386 15.8832C36.1325 15.9789 36.0909 16.0689 36.022 16.1355C35.8899 16.2842 35.7248 16.2897 35.5761 16.2016C34.5248 15.5961 33.4349 15.8493 32.3835 16.1355C31.822 16.2842 31.5798 16.0915 31.4367 15.6291C31.3431 15.3154 31.2771 14.9961 31.2385 14.6713C31.167 14.1319 31.6183 14.0163 31.9541 13.9998C32.9725 13.9502 34.0128 13.752 35.0477 14.242Z" fill="black"/>
</g>
</g>
<defs>
<clipPath id="clip0_319_27531">
<path d="M0 24.875C0 11.6202 10.7452 0.875 24 0.875C37.2548 0.875 48 11.6202 48 24.875C48 38.1298 37.2548 48.875 24 48.875C10.7452 48.875 0 38.1298 0 24.875Z" fill="white"/>
</clipPath>
</defs>
</svg>
