<svg width="48" height="49" viewBox="0 0 48 49" fill="none" xmlns="http://www.w3.org/2000/svg">
<g clip-path="url(#clip0_319_27568)">
<mask id="mask0_319_27568" style="mask-type:luminance" maskUnits="userSpaceOnUse" x="0" y="0" width="48" height="49">
<path d="M48 0.875H0V48.875H48V0.875Z" fill="white"/>
</mask>
<g mask="url(#mask0_319_27568)">
<path d="M35.7248 43.7405C30.2642 60.0891 15.6991 65.1313 7.99817 44.8304C6.93578 42.0395 9.70459 41.0047 11.6422 39.7716C12.9688 38.9294 13.6679 38.2028 13.5853 37.4487C13.2 33.9038 11.5541 24.0285 11.5541 24.0285L11.389 23.7093C11.389 23.7093 11.4275 23.6212 11.2679 23.7753C11.1028 23.9405 10.7229 25.6579 9.23119 25.6579C7.88257 25.6579 6.52294 25.0579 5.8734 20.9074C5.62569 19.4047 5.7578 15.4634 7.43119 14.7478C8.11927 14.4561 8.7523 14.3515 9.36881 14.7038C9.99083 15.0561 8.65321 13.4927 15.5339 7.76798C20.0037 4.03587 27.0661 3.49091 29.9174 4.12394C32.7688 4.75697 35.6147 6.14963 36.8752 9.10559C38.4055 12.6836 35.4495 15.3973 36.1046 23.5551C35.9835 26.5056 36.1486 32.979 28.0349 35.1478C26.4936 35.5606 26.9725 37.812 29.2844 38.3625C32.9725 39.5184 35.7248 42.3423 35.7248 43.7515" fill="white"/>
<path fill-rule="evenodd" clip-rule="evenodd" d="M35.7248 18.3372L35.7303 18.2601C35.956 16.2564 36.1816 14.3133 37.222 12.5684C37.5798 12.8106 37.5358 13.1188 37.4257 13.4051C36.3303 16.2234 36.4349 19.1518 36.5339 22.0803L36.556 22.8509C36.6716 26.506 35.7578 29.8307 33.3248 32.6216C32.4771 33.5904 31.3541 34.2619 30.2147 34.8399C29.0367 35.4454 28.789 35.9463 29.1578 37.2399L29.2018 37.383C29.2789 37.5977 29.356 37.8179 29.1468 38.0326C28.8991 38.2858 28.6238 38.2142 28.3321 38.1317L28.2991 38.1262C25.5699 37.362 23.0107 36.0861 20.7578 34.3665C20.4275 34.1243 20.1633 33.7996 19.9046 33.4803L19.8881 33.4583C19.7505 33.2931 19.7229 33.0289 19.9156 32.8858C20.0972 32.7482 20.2349 32.8583 20.3945 32.9849L20.4495 33.0344C21.6515 34.0097 23.1103 34.6158 24.6495 34.7794C25.3871 34.8564 26.1138 34.8289 26.8514 34.8014C27.2587 34.7849 27.666 34.7684 28.0789 34.7739C28.6404 34.7739 29.1082 34.5151 29.5486 34.2674L29.7027 34.1794C31.233 33.3262 32.6917 32.3739 33.6771 30.8381C34.5633 29.4619 35.1027 27.9647 35.4165 26.3849C35.8128 24.3977 35.7798 22.383 35.7468 20.3408C35.7303 19.6803 35.7193 19.0087 35.7193 18.3372H35.7248ZM8.01467 14.1867C9.22018 14.0931 9.88623 14.8032 10.4532 15.6344C11.1252 16.65 11.5477 17.8099 11.6862 19.0197C11.7138 19.2234 11.7413 19.4381 11.6202 19.6418C11.3725 19.6748 11.3505 19.4766 11.3449 19.3335C11.3174 18.194 10.811 17.2032 10.3046 16.2454C9.94128 15.5574 9.41284 14.8913 8.57614 14.7262C7.62935 14.5335 6.75963 15.3867 6.33027 16.4986C5.5321 18.5684 5.66972 20.6051 6.40733 22.6087C6.7266 23.484 7.12843 24.3757 7.93761 24.9867C8.75229 25.6087 9.73761 25.4986 10.3376 24.6729L10.4477 24.5353C10.5578 24.3922 10.6679 24.2546 10.7229 24.095C10.8385 23.7757 11.0202 23.4785 11.3449 23.5225C11.7193 23.5775 11.7853 23.9794 11.8238 24.2931C12.1653 27.1767 12.5691 30.0526 13.0349 32.9188L13.3596 35.0546C13.5027 35.9959 13.6679 37.35 13.5578 37.9225C13.5507 37.9626 13.5452 38.003 13.5413 38.0436C13.5193 38.1977 13.5082 38.3188 13.3101 38.3463C13.0404 38.3904 12.9248 38.2362 12.8862 37.994C12.7596 37.0583 12.7211 36.695 12.666 35.2638C12.6165 33.8766 12.3578 32.5115 12.0936 31.1408L11.8183 29.6546C11.5321 27.9592 11.2514 26.2418 11.2238 24.3151L11.1138 24.4803C10.6954 25.1023 10.3596 25.6087 9.76513 25.8014C9.32383 25.9705 8.84021 25.9949 8.38409 25.8713C7.92797 25.7476 7.52296 25.4822 7.22752 25.1133C6.45185 24.2372 5.90696 23.1815 5.64219 22.0418C5.17981 20.1702 5.09724 18.3482 5.69174 16.5041C5.97797 15.6179 6.99632 14.0436 8.01467 14.1922V14.1867ZM9.91926 21.2051C10.1615 21.3812 10.3816 21.5353 10.5798 20.9078C10.5193 18.5849 9.77063 17.0986 8.60917 17.0381C9.22568 17.8418 9.82018 18.6234 9.87522 19.7078C9.64617 19.5908 9.44521 19.4256 9.28623 19.2234C9.17614 19.1023 9.06605 18.9812 8.92843 18.8931L8.7633 18.761C8.49907 18.5629 8.22935 18.3537 7.78348 18.5133C7.99265 18.8326 8.27889 19.0638 8.57063 19.284C8.90091 19.5427 9.23119 19.7959 9.42935 20.1922C8.84586 20.6161 8.59265 21.1665 8.89541 21.8381C9.15963 22.4161 9.55045 22.895 10.3211 22.928C10.2881 22.5812 10.0624 22.328 9.83669 22.0803C9.56146 21.783 9.30274 21.4968 9.42385 21.0564C9.59999 20.9739 9.76513 21.095 9.91926 21.2051Z" fill="black"/>
<path d="M56.8954 72.9845H-9.62201L-9.14861 69.5001C-9.14861 69.5001 -13.4202 68.0469 -13.844 67.2047C-14.2734 66.3625 -9.21467 55.4138 -8.52109 53.6854C-7.82201 51.9515 -4.28256 45.8249 -2.18531 44.6579C0.148634 43.3478 7.81652 39.8744 8.25689 39.5221C9.69359 38.3661 12.8092 37.1661 12.8092 37.1661V38.856L22.244 54.3239L22.811 56.4047C22.811 56.4047 28.5138 40.9478 29.0477 37.8102C29.4991 35.168 35.6422 38.3716 35.6422 38.3716C35.6422 38.3716 41.9229 42.2579 43.5138 43.5074C46.7284 46.0505 51.2202 51.1368 53.4606 56.6744C54.7376 59.812 57.4514 65.9331 57.8973 66.6542C58.3431 67.3698 56.411 68.6359 56.411 68.6359L56.8954 72.99V72.9845Z" fill="white"/>
<path fill-rule="evenodd" clip-rule="evenodd" d="M43.2936 43.8661C41.967 42.7707 40.6349 41.6753 39.1651 40.8276C38.945 40.7065 38.7358 40.5744 38.5211 40.4423C37.7945 40.0129 37.0679 39.5725 36.2422 39.3083C36.1431 39.8698 36.1651 40.4092 36.2147 40.9377C36.4789 43.5217 36.4807 46.1258 36.2202 48.7101C36.1431 49.3432 36.1596 49.9927 36.1761 50.6368L36.1872 51.3138C36.1872 51.6881 36.1321 52.0624 36.0385 52.4147C35.9064 52.9212 35.6697 53.1468 35.1578 53.1854C34.7009 53.2184 34.244 53.29 33.7927 53.3615C33.0621 53.5036 32.3183 53.5663 31.5743 53.5487C31.4202 53.5377 31.2661 53.5432 31.1725 53.5487H31.1009L31.2936 53.7909C31.4697 54.0111 31.6789 54.2698 31.8661 54.5395C32.1688 54.9634 32.2349 55.3322 31.9486 55.9101C30.5174 58.7945 28.5908 61.2661 26.5211 63.523C25.8605 64.2441 25.233 65.0202 24.611 65.7909C23.5816 67.0734 22.5523 68.356 21.3193 69.4129C20.6972 69.9468 20.1358 70.5578 19.5688 71.1744C19.0205 71.7954 18.438 72.3853 17.8238 72.9413C17.0917 72.9799 16.3816 72.9799 15.611 72.9799C15.9633 72.2753 16.2495 71.5212 16.5358 70.767C16.7844 70.0885 17.0599 69.4201 17.3615 68.7634C17.8992 67.6021 18.3895 66.4195 18.8312 65.2184C19.1615 64.3377 19.178 63.4459 18.6 62.6423L17.9725 61.7615C16.8495 60.1927 15.7211 58.6239 14.4385 57.2092C13.855 56.5707 13.7229 55.5579 14.0917 54.6221C14.1853 54.3909 14.2679 54.1542 14.356 53.912L14.4716 53.5927C13.7009 53.2624 12.9303 53.2459 12.1541 53.2239C11.7853 53.2239 11.422 53.2129 11.0642 53.1689L10.9872 53.1579C9.79816 53.0257 9.77614 53.0202 9.35779 51.7157C8.44917 48.911 7.86554 46.0113 7.61834 43.0734C7.57055 42.2524 7.38638 41.445 7.07339 40.6845C5.81834 41.1964 4.61835 41.7744 3.42385 42.3523L3.3688 42.3744C2.00917 43.0349 0.660545 43.745 -0.677069 44.4716C-2.65872 45.5615 -4.20551 47.2129 -5.46606 49.2386L-5.49358 49.2826C-6.41285 50.7579 -7.32661 52.2331 -8.04771 53.8514L-9.3578 56.7689L-10.0899 58.3817L-10.6679 59.6533C-11.1743 60.7652 -11.6807 61.8716 -12.1541 62.9945C-12.5623 63.9425 -12.9368 64.9046 -13.2771 65.879C-13.4973 66.523 -13.2826 66.8147 -12.8202 66.9799L-11.9945 67.3101C-11.2305 67.6505 -10.4311 67.9052 -9.61101 68.0698C-8.5101 68.2459 -7.51927 68.7028 -6.52845 69.1597L-6.45689 69.1927L-6.37982 69.2257C-4.71193 69.9964 -3.07707 70.8386 -1.4367 71.6863C-0.74086 72.0623 -0.0681019 72.4796 0.577977 72.9358C0.0495367 72.9799 -0.478904 72.9909 -1.00734 72.9523C-2.44059 72.162 -3.92884 71.4759 -5.46056 70.8991C-6.52845 70.4698 -7.59633 70.0404 -8.65322 69.523C-8.72987 69.9209 -8.81428 70.3173 -8.90643 70.712C-9.08257 71.4991 -9.24771 72.2257 -9.26973 72.9854H-9.96331C-10.0844 72.589 -9.99634 72.2147 -9.91377 71.8404L-9.84771 71.5377C-9.73762 70.9156 -9.78166 70.4533 -10.4752 70.3212C-11.4936 70.1175 -12.3468 69.5065 -13.2055 68.8955C-13.2971 68.831 -13.3888 68.7668 -13.4807 68.7028C-14.1413 68.2349 -14.3505 67.2606 -14.0973 66.1157C-13.811 64.8221 -13.3046 63.6386 -12.7927 62.4551L-12.7211 62.29C-11.8239 60.1982 -10.8936 58.134 -9.9578 56.0698L-9.22019 54.4294C-7.80551 51.2863 -6.16514 48.2643 -3.85322 45.8202C-2.69725 44.5982 -1.37615 43.679 0.0935736 42.9689C0.522932 42.7652 0.95229 42.5505 1.38165 42.3358C2.48256 41.7854 3.58348 41.2349 4.71192 40.7835C5.77431 40.3652 6.25321 39.8478 6.71559 39.3358C7.211 38.8019 7.69541 38.2734 8.84036 37.8936L9.6055 37.6294C10.5303 37.2991 11.455 36.9799 12.4349 36.8863H12.4899C12.5615 36.8808 12.633 36.8753 12.6771 36.8312L12.6936 36.8147C12.9138 36.5945 13.1505 36.3744 13.4092 36.7267C13.5205 36.8782 13.585 37.0591 13.5948 37.2469C13.6046 37.4347 13.5592 37.6212 13.4642 37.7835C13.0789 38.378 13.2881 38.9395 13.4807 39.4569L13.4972 39.5065C13.9596 40.7175 16.811 45.534 17.8294 46.9156L18.1596 47.3505C19.3156 48.8918 22.145 52.6569 22.9982 55.2606C23.3394 54.5945 23.5816 53.8845 23.8183 53.1854L24.1046 52.3597C24.6734 50.7802 25.2093 49.189 25.7119 47.5872C25.9156 46.9542 26.0972 46.3212 26.2734 45.6771C26.422 45.1597 26.5651 44.6423 26.7248 44.1358C26.9615 43.3542 27.2092 42.5835 27.4569 41.8129L27.9523 40.2606L28.2771 39.2037L28.6349 38.0202C29.0917 36.6001 29.2073 36.3413 30.5064 36.3854C32.1138 36.4404 34.0073 37.0074 35.1083 37.4698C40.3927 39.6936 48.7872 45.2092 52.7064 53.4441C53.8841 55.9811 54.9764 58.5569 55.9817 61.167C56.945 63.589 57.6991 65.4936 58.3266 66.3964C58.855 67.167 58.7945 67.6074 58.1064 68.1634C58.0177 68.2356 57.9314 68.3109 57.8477 68.389C57.6275 68.5927 57.4073 68.7964 57.1211 68.8845C56.8128 68.978 56.7193 69.2423 56.7633 69.6001C56.8944 70.707 57.0137 71.8153 57.1211 72.9248C56.8954 72.9799 56.6807 72.9799 56.389 72.9303C56.1688 72.4239 56.1798 71.9395 56.1908 71.4716V71.4166C56.2183 70.5634 55.9982 69.7817 55.767 68.9615L55.6018 68.3615C55.4202 68.4386 55.2385 68.5101 55.0514 68.5762C54.6661 68.7193 54.2972 68.8569 53.9505 69.0606C52.6567 69.8444 51.2436 70.4115 49.767 70.7395C48.6165 70.9817 48.0881 71.6808 48.2477 72.9854C47.9725 72.9909 47.6917 72.9689 47.4165 72.9193C47.3064 70.6239 48.6936 70.079 50.4881 69.3744L51.1321 69.1157C53.7413 68.0423 57.0771 66.5175 57.0771 66.5175C57.0771 66.5175 53.7138 58.5964 52.5303 55.6074C50.2183 49.7395 44.4055 44.7799 44.2128 44.6257L43.2936 43.8716V43.8661ZM25.9431 49.4423C25.0693 52.0465 24.1221 54.6255 23.1027 57.1762C22.3321 59.1358 21.4954 61.0624 20.6587 62.9835L20.5761 63.1817C20.2734 63.8643 19.9927 64.5579 19.7119 65.2459C19.2991 66.2478 18.8862 67.2551 18.4349 68.2349C18.0661 69.0276 17.7468 69.8478 17.4275 70.6734L16.9872 71.7964L16.9596 71.8624C16.8936 72.0111 16.8275 72.1597 16.9816 72.3028C17.0972 72.4129 17.2239 72.3303 17.3229 72.2478C17.455 72.1377 17.5872 72.0221 17.7083 71.8955L18.4239 71.1523L19.4367 70.1065L20.5101 69.0276C21.0936 68.4441 21.6771 67.8661 22.2495 67.2661C22.6624 66.8368 23.0202 66.3468 23.378 65.8569C23.7633 65.334 24.1486 64.8111 24.589 64.3707C25.7665 63.2117 26.8488 61.96 27.8257 60.6276C28.167 60.1597 28.5248 59.7028 28.8826 59.2459C29.6697 58.2276 30.4569 57.2092 31.0899 56.0478C31.3761 55.5248 31.4422 55.1615 30.9578 54.7377C30.589 54.4074 30.2807 53.989 29.978 53.5817L29.9394 53.5267L29.9174 53.4991C29.7523 53.2679 29.5541 53.0037 29.7413 52.6349C30.1486 52.5799 30.5615 52.5634 30.9743 52.5689C32.1303 52.5689 33.2862 52.5248 34.4422 52.4808L34.6459 52.4753C35.0422 52.4588 35.3009 52.2331 35.3174 51.7377C35.3428 51.1043 35.3759 50.4712 35.4165 49.8386L35.4991 48.4624C35.5982 46.8936 35.6972 45.3248 35.6367 43.756C35.5816 42.4184 35.5596 41.0753 35.6312 39.7377C35.6697 39.0771 35.4495 38.7689 34.9872 38.4771C33.6881 37.6624 32.2624 37.4698 30.8367 37.2716L30.1982 37.1835C29.8349 37.1285 29.7138 37.3707 29.6202 37.6679C29.5321 37.9542 29.4275 38.2404 29.3284 38.5267C29.1743 38.9505 29.0202 39.3799 28.9101 39.8257C28.7284 40.5634 28.4697 41.2679 28.211 41.9725C28.0569 42.3909 27.9027 42.8147 27.7651 43.2386C27.5119 44.0312 27.2862 44.8349 27.0605 45.6496C26.7358 46.8056 26.411 47.989 25.9816 49.167C25.9771 49.2597 25.9642 49.3519 25.9431 49.4423ZM12.6936 39.9744L12.7211 40.0404C13.6294 42.0661 18.0165 48.6606 19.7615 51.0771L20.0092 51.4184C20.9174 52.6459 22.5578 54.8698 22.1009 56.6808C21.6639 58.5029 21.0366 60.2741 20.2294 61.9652C20.1798 62.0698 20.1468 62.1854 20.1083 62.301C20.0574 62.5463 19.937 62.7718 19.7615 62.9505C19.0459 61.7395 18.2037 60.6386 17.3615 59.5432C16.9816 59.0478 16.6018 58.5523 16.233 58.0459C15.9688 57.6826 15.6716 57.3523 15.3798 57.0166C15.1321 56.7413 14.8844 56.4661 14.6587 56.1689C14.378 55.8056 14.4055 55.5689 14.5816 55.2716C14.7743 54.9468 14.8954 54.589 15.022 54.2312L15.1211 53.934C15.3798 53.2184 15.2037 52.8441 14.5266 52.6294C14.0587 52.4863 13.5798 52.4808 13.1009 52.4808C12.7927 52.4808 12.4844 52.4808 12.1816 52.4368C12.1486 52.4368 12.1101 52.4368 12.0716 52.4478L11.9945 52.4588C10.4642 52.4863 10.3321 52.3487 9.8422 50.7634C9.16234 48.5633 8.705 46.3006 8.47706 44.0092C8.42201 43.5248 8.33394 43.0514 8.24587 42.578C8.1633 42.1597 8.08073 41.7468 8.03119 41.323C7.9211 40.4533 8.05871 40.1395 8.7633 39.8368C9.56697 39.49 9.81467 39.1377 10.0404 38.8184C10.2936 38.4606 10.5193 38.1413 11.4605 37.9046H11.4716C12.2037 37.7175 12.2532 37.701 12.2862 38.5872C12.3027 39.0991 12.5064 39.5505 12.6936 39.9689V39.9744Z" fill="black"/>
<path d="M41.6697 7.04099C42.0511 7.89091 42.2515 8.81089 42.2581 9.74244C42.2647 10.674 42.0775 11.5967 41.7083 12.452C41.0092 14.0814 40.3156 15.7162 39.6936 17.3786C38.956 19.3382 39.2697 21.2098 40.244 23.0483C41.4 25.2226 42.7101 27.3309 43.4477 29.7144C44.1633 32.0538 44.455 34.4208 43.4752 36.7162C42.6385 38.6924 41.6257 40.597 39.567 41.6593C37.9744 42.4897 36.1292 42.6958 34.3927 42.2373C32.411 41.7694 30.9633 40.5144 29.5156 39.2098C28.678 38.4351 27.8075 37.6968 26.9064 36.997C26.2128 36.4685 25.7835 35.7419 25.233 35.1089C25.145 35.0098 25.1284 34.8942 25.2055 34.7896C25.2771 34.6795 25.3872 34.6905 25.5138 34.7181C28.3817 35.4336 30.2642 33.9474 31.9101 31.8777C33.6 29.7529 34.6184 27.3089 35.3229 24.7272C36.184 21.6812 36.5337 18.5134 36.3578 15.3529C36.2477 13.7125 36.0055 12.0667 35.5651 10.4538C35.0917 8.74741 34.4752 7.14007 33.4624 5.68135C33.1101 5.18594 32.6532 4.79512 32.2569 4.27218C31.3024 5.28996 30.2392 6.19998 29.0862 6.98594C26.7815 8.60655 24.2809 9.92898 21.644 10.9217C19.2991 11.841 16.8 12.1162 14.422 12.8703C13.6077 13.1209 12.9177 13.6693 12.4899 14.4061C11.7288 15.661 11.4565 17.1522 11.7248 18.5951C11.7798 18.8814 11.8844 19.2281 11.4936 19.2777C11.1358 19.3217 11.2073 18.9364 11.1413 18.6997C10.8771 17.7364 10.6899 16.7511 10.3156 15.8153C9.89725 14.7694 8.56514 13.9768 7.61835 14.274C7.32888 14.3758 7.06716 14.5437 6.85405 14.7645C6.64094 14.9852 6.48232 15.2527 6.39083 15.5456C5.7707 17.1147 5.55124 18.8135 5.7523 20.4887C5.90092 21.6281 6.52845 22.5089 7.16698 23.3951C8.0367 24.6171 8.59817 24.7713 10.0184 24.3584C10.4862 24.2153 10.7009 23.9015 10.9156 23.5327C11.0037 23.3731 11.1138 23.1804 11.334 23.2245C11.5486 23.2575 11.7193 23.4226 11.7743 23.6373C12.2147 25.641 12.8917 27.5896 12.9578 29.6758C13.0514 32.7364 10.3706 35.5272 7.48074 35.5768C5.66423 35.6098 3.90276 35.3566 2.12478 35.0814C0.894246 34.8953 -0.360188 34.9401 -1.57431 35.2135C-2.8899 35.5052 -4.16146 35.852 -5.24036 36.7052C-5.5321 36.9364 -5.7688 36.8208 -5.96697 36.485C-7.05687 34.6465 -8.08073 32.7859 -8.6422 30.7052C-9.35779 28.0245 -9.68807 25.3713 -8.92293 22.608C-8.62018 21.507 -8.36146 20.4061 -7.85504 19.3823C-6.93027 17.5107 -5.70825 15.8924 -3.9688 14.7034C-2.0422 13.3823 -0.104582 12.0832 1.82202 10.7676C3.41835 9.68319 4.62936 8.23548 5.67524 6.63915C7.57432 3.74374 9.73762 1.07952 12.4844 -1.03975C14.3945 -2.52599 16.4752 -3.75901 18.8477 -4.33149C20.5321 -4.74984 22.2826 -4.8269 24 -4.55718C25.2991 -4.35901 26.5596 -4.09479 27.7046 -3.43975C28.3872 -3.04892 29.0917 -2.6636 29.6862 -2.15718C30.3569 -1.62859 31.1232 -1.23424 31.9431 -0.995711C34.145 -0.263601 36.1651 0.771262 37.9651 2.22998C39.5615 3.52356 40.9376 5.00429 41.6697 7.03548V7.04099Z" fill="black"/>
<path d="M28.844 30.3808C29.1082 29.5992 29.0642 29.4891 28.3046 29.3515C27.7431 29.2524 27.2422 29.0047 26.7082 28.834C26.1082 28.6414 25.7174 28.0744 25.0844 27.9258C24.7541 29.5661 26.9394 31.0359 28.8385 30.3863L28.844 30.3808Z" fill="white"/>
<path fill-rule="evenodd" clip-rule="evenodd" d="M24.9138 30.1379C25.3939 30.6164 25.9822 30.9723 26.629 31.1754C27.2757 31.3785 27.9618 31.423 28.6294 31.3049L28.9817 31.1673C29.2459 31.0627 29.4881 30.9746 29.7083 30.848C29.9945 30.6829 30.2202 30.3416 29.9725 30.0884C29.422 29.5214 29.6972 29.1966 30.1927 28.8664C30.4128 28.7232 30.545 28.5251 30.4294 28.2774C30.2807 27.9471 29.989 28.0682 29.7688 28.1673C29.4629 28.2843 29.1385 28.3459 28.811 28.3489C27.4459 28.5031 26.3394 27.8535 25.244 27.2205L25.211 27.204C24.5615 26.8187 24.1651 26.9508 24.0826 27.7104C24.0168 28.152 24.058 28.6029 24.2026 29.0253C24.3473 29.4477 24.5911 29.8293 24.9138 30.1379ZM28.3046 29.3508C29.0697 29.4884 29.1083 29.5985 28.8385 30.3856C26.9394 31.0352 24.7541 29.5599 25.0844 27.9251C25.4147 28.0076 25.6899 28.2003 25.9541 28.3985C26.1799 28.5853 26.4346 28.734 26.7083 28.8388C26.8899 28.8939 27.0661 28.9599 27.2422 29.026C27.589 29.1581 27.9303 29.2902 28.3046 29.3563V29.3508Z" fill="black"/>
<path d="M23.2293 26.8574C23.6807 27.0611 23.6532 27.3693 23.4605 27.6831C23.3174 27.9308 23.1027 28.0794 22.8165 27.9033C22.5523 27.7382 22.6128 27.5125 22.7615 27.2978C22.8826 27.1327 22.9266 26.896 23.2293 26.8574Z" fill="black"/>
<path d="M29.8184 18.1813C29.5883 19.6505 29.65 21.1507 30 22.596C30.2587 23.829 29.1633 25.5905 27.4239 25.3318C26.8184 25.2437 26.4606 24.8859 26.2514 24.3519C26.1578 24.1152 26.1688 23.8675 26.433 23.7464C26.6532 23.6529 26.8404 23.7354 26.9505 23.9666C27.2147 24.5226 27.6881 24.4841 28.156 24.3464C28.6844 24.1868 29.0587 23.818 29.0972 23.251C29.1358 22.6951 29.1083 22.1336 29.0092 21.5776C28.6941 19.923 28.8623 18.2126 29.4936 16.651C29.6147 16.3373 29.7908 16.051 30.1486 16.1941C30.5615 16.3593 30.2477 16.6786 30.1872 16.9153C30.0936 17.3226 29.956 17.7244 29.8184 18.1813Z" fill="black"/>
<path d="M32.0037 21.0507C32.7193 21.0672 33.4018 21.1112 34.0734 21.1883C34.2385 21.2103 34.3486 21.3699 34.3486 21.5571C34.3486 21.7387 34.255 21.8653 34.0899 21.9424C33.4734 22.2066 32.8789 22.3938 32.2349 21.9534C31.8771 21.7057 31.7394 21.4745 32.0037 21.0507ZM23.2073 20.7479C23.5927 20.7479 23.6367 20.9571 23.5927 21.2158C23.4826 21.7773 22.4917 22.4488 21.9193 22.3442C21.5945 22.2892 21.3413 22.1241 21.3303 21.7663C21.3193 21.3975 21.5945 21.3149 21.8972 21.3039C22.3927 21.2874 22.767 21.0176 23.2073 20.7534V20.7479ZM21.4183 18.5241C21.6936 17.8635 21.9138 16.9057 22.745 17.2855C23.8844 17.803 23.5101 18.9754 23.2789 19.8947C23.1908 20.2415 22.4807 20.7699 22.2716 20.6819C21.3743 20.3075 21.2147 19.4874 21.4183 18.5241ZM33.9083 20.5497C33.4349 20.9626 32.9725 20.9681 32.6862 20.4672C32.1908 19.5864 32.2128 18.6617 32.8679 17.869C33.0055 17.7039 33.6275 17.6708 33.7651 17.814C34.5358 18.6397 34.5688 19.5644 33.9083 20.5497Z" fill="black"/>
<path d="M24.2257 15.3968C23.7468 14.7307 22.8385 14.5161 22.0899 14.7087C21.4294 14.8849 20.8954 15.3142 20.2404 15.5014C20.0202 15.5619 19.8275 15.65 19.7064 15.3858C19.6018 15.1711 19.6238 14.9784 19.8275 14.8188C20.8624 14.0317 22.778 13.3381 24.1596 14.1087C24.4958 14.3154 24.7787 14.5982 24.9853 14.9344C25.167 15.1931 25.233 15.5729 24.9853 15.7656C24.6605 16.0188 24.4349 15.6996 24.2257 15.3968ZM34.4587 15.7271C33.9248 15.3693 33.4183 15.3252 32.9174 15.683C32.7413 15.8096 32.5486 15.9473 32.367 15.7271C32.1853 15.5014 32.2349 15.2537 32.4385 15.0335C32.7468 14.6977 33.1651 14.6427 33.5835 14.5931C34.0698 14.5469 34.5547 14.6944 34.933 15.0036C35.3112 15.3128 35.5522 15.7587 35.6037 16.2445C35.6147 16.4812 35.6037 16.7454 35.3174 16.8115C35.0587 16.8665 34.8605 16.7179 34.756 16.4867C34.6514 16.2555 34.5798 16.0078 34.4587 15.7271ZM29.1523 14.6922C29.4385 14.3289 29.5927 13.8665 29.9505 13.5583C30.0881 13.4427 30.1927 13.2555 30.4183 13.3821C30.622 13.4977 30.6385 13.7069 30.5835 13.8775C30.4128 14.3509 30.2147 14.8188 29.9945 15.2757C29.8844 15.4959 29.6092 15.5784 29.389 15.5069C29.0257 15.3968 29.1138 15.072 29.1468 14.7418V14.6867L29.1523 14.6922Z" fill="black"/>
<path d="M29.1578 14.6817C29.0477 14.9129 28.9596 15.1496 28.844 15.3753C28.756 15.5459 28.6128 15.6945 28.4037 15.6285C28.1505 15.5514 28.1284 15.3367 28.1835 15.1165C28.2495 14.8909 28.3211 14.6762 28.4037 14.456C28.5138 14.1973 28.4862 13.7734 28.9156 13.834C29.378 13.9055 29.1578 14.2964 29.1578 14.6266V14.6817Z" fill="black"/>
<path d="M51.3853 73.2547L44.3119 73.3648C44.3119 73.3648 44.6972 71.0859 44.9505 70.2822C45.4899 68.5538 44.1578 68.4712 43.9376 67.3098C43.7174 66.1373 44.0697 65.9006 44.1798 65.2566C44.2899 64.607 43.7505 64.6731 43.3872 64.3098C43.0238 63.941 43.255 63.8694 43.4312 63.2474C43.6073 62.6254 42.2752 62.9336 41.5761 61.9263C40.8771 60.9244 41.1578 59.9446 41.1578 59.9446C41.1578 59.9446 40.3651 59.8125 40.4972 58.9978C40.6294 58.1832 40.9376 57.1263 41.9284 56.5923C42.9193 56.0639 48.4679 55.3813 48.4679 55.3813C48.4679 55.3813 48.0275 50.5868 47.989 49.563C47.956 48.5446 48.3193 45.9079 49.1945 45.7868C50.0642 45.6602 50.5266 48.8804 50.7688 50.3336C51.011 51.7923 52.6183 56.4437 52.7945 57.8529C52.9706 59.2621 52.5083 63.5171 52.4642 64.2382C52.4202 64.9703 51.4954 66.7098 51.1431 67.7666C50.7908 68.8235 51.3853 73.2547 51.3853 73.2547Z" fill="white"/>
<path d="M44.1138 73.3712C44.0587 72.4079 44.389 71.4997 44.5431 70.5529C44.6587 69.8097 44.6917 69.2207 44.1303 68.5602C43.7936 68.1753 43.5843 67.6957 43.5311 67.1872C43.4779 66.6786 43.5834 66.1661 43.833 65.7198C44.0422 65.3125 43.9872 65.0758 43.5853 64.8776C42.5725 64.3712 42.4954 64.063 43.0954 63.0391C41.5486 62.6758 40.9817 61.9932 40.9046 60.4354C40.8991 60.2978 40.9156 60.1052 40.8385 60.0336C39.5339 58.8886 40.6624 57.9804 41.1578 57.0501C41.5266 56.362 42.1927 56.0868 42.9908 55.9492C44.4495 55.707 45.8862 55.3822 47.378 55.4318C47.7633 55.4428 47.9009 55.2446 47.967 54.8813C48.1211 53.9951 47.989 53.0978 47.9119 52.2226C47.8073 50.9675 47.6202 49.4538 47.7468 48.1767C47.8349 47.373 49.0679 45.4244 49.2771 45.4189C49.756 45.4024 50.0037 45.6006 50.0477 46.1125C50.0752 46.4593 50.444 48.7217 50.6037 49.3602C51.0991 51.3198 51.9413 53.2134 52.6128 55.8721C54.1982 62.1143 52.5358 64.6905 51.6275 67.9162C51.0826 69.8428 51.9468 73.3767 51.9468 73.3767C51.9468 73.3767 51.2752 73.3767 50.8844 73.3217C50.7413 71.8905 50.6422 70.5198 50.5706 69.1492C50.5266 68.34 50.4881 67.5419 50.9395 66.7822C51.4018 66.0006 51.8587 65.1859 52.0128 64.2776C52.3431 62.4336 52.5688 60.573 52.4642 58.685C52.4422 58.2171 52.3101 57.7822 52.2055 57.3308C52.0239 56.5327 51.655 55.8061 51.3908 55.0519C51.044 54.0886 51.1486 53.0538 50.7578 52.118C50.6037 51.7492 50.5486 51.3584 50.4716 50.9675C50.1413 49.3602 49.7505 47.7639 49.3706 46.1125C49.1692 46.2203 48.999 46.3782 48.8765 46.5711C48.754 46.764 48.6834 46.9852 48.6716 47.2134C48.6165 48.0831 48.4128 48.9363 48.4899 49.8061C48.622 51.4024 48.6495 53.0097 48.8752 54.6006C48.9138 54.9308 48.9963 55.1951 49.2936 55.3602C49.4917 55.4703 49.6294 55.6354 49.5523 55.8776C49.4642 56.1529 49.222 56.1033 49.0239 56.0483C48.8037 55.9932 48.611 56.0538 48.4018 56.0538C47.0807 56.0648 45.8147 56.4226 44.5046 56.5492C43.1119 56.6758 41.7688 57.0446 41.2569 58.6409C41.1963 58.8336 40.9872 59.0373 41.1908 59.2024C41.367 59.351 41.5541 59.5217 41.8789 59.3951C43.9706 58.5969 46.1615 58.4868 48.3688 58.5419C48.6716 58.5584 48.9743 58.6354 49.2495 58.773C49.4312 58.8666 49.5798 58.9712 49.5138 59.1969C49.4587 59.3896 49.2826 59.4006 49.1064 59.3785C47.7413 59.2299 46.4037 59.4831 45.055 59.6208C44.1523 59.7088 43.2385 59.7529 42.3853 60.1162C42.0385 60.2703 41.7523 60.4464 41.6972 60.8373C41.6422 61.2391 41.7963 61.5639 42.1101 61.8281C42.3688 62.0483 42.6605 62.0538 42.9743 62.0538H49.167C49.4477 62.0538 49.7284 62.0758 50.0092 62.1088C50.1468 62.1198 50.2844 62.2024 50.2954 62.3675C50.3174 62.5217 50.2239 62.6263 50.1083 62.7198C49.9431 62.8409 49.756 62.8354 49.5688 62.8574C48.3083 63.0061 47.0422 62.9455 45.7761 62.9455C44.9229 62.9455 44.1798 63.1877 43.5743 63.9088C44.4 64.3217 45.1651 64.7675 45.9688 65.0923C46.7835 65.4171 47.7633 64.9272 48.622 65.4776C47.6862 66.3198 46.4422 66.3143 44.6037 65.5052C44.4936 66.507 44.1413 67.4868 45.0661 68.3125C45.3963 68.6042 45.5064 68.9896 45.5229 69.4409C45.5725 70.7951 45.1211 72.0666 44.9009 73.3767H44.1138V73.3712Z" fill="black"/>
</g>
</g>
<defs>
<clipPath id="clip0_319_27568">
<path d="M0 24.875C0 11.6202 10.7452 0.875 24 0.875C37.2548 0.875 48 11.6202 48 24.875C48 38.1298 37.2548 48.875 24 48.875C10.7452 48.875 0 38.1298 0 24.875Z" fill="white"/>
</clipPath>
</defs>
</svg>
