<svg width="21" height="16" viewBox="0 0 21 16" fill="none" xmlns="http://www.w3.org/2000/svg">
<g clip-path="url(#clip0_319_27444)">
<path d="M12.9313 0.0372383C12.4 -0.115887 11.8469 0.193488 11.6938 0.724738L7.69376 14.7247C7.54064 15.256 7.85001 15.8091 8.38126 15.9622C8.91251 16.1154 9.46564 15.806 9.61876 15.2747L13.6188 1.27474C13.7719 0.743488 13.4625 0.190363 12.9313 0.0372383ZM15.45 3.79036C15.0594 4.18099 15.0594 4.81536 15.45 5.20599L18.2406 7.99974L15.4469 10.7935C15.0563 11.1841 15.0563 11.8185 15.4469 12.2091C15.8375 12.5997 16.4719 12.5997 16.8625 12.2091L20.3625 8.70911C20.7531 8.31849 20.7531 7.68411 20.3625 7.29349L16.8625 3.79349C16.4719 3.40286 15.8375 3.40286 15.4469 3.79349L15.45 3.79036ZM5.86564 3.79036C5.47501 3.39974 4.84064 3.39974 4.45001 3.79036L0.950012 7.29036C0.559387 7.68099 0.559387 8.31536 0.950012 8.70599L4.45001 12.206C4.84064 12.5966 5.47501 12.5966 5.86564 12.206C6.25626 11.8154 6.25626 11.181 5.86564 10.7904L3.07189 7.99974L5.86564 5.20599C6.25626 4.81536 6.25626 4.18099 5.86564 3.79036Z" fill="white"/>
</g>
<defs>
<clipPath id="clip0_319_27444">
<path d="M0.65625 0H20.6562V16H0.65625V0Z" fill="white"/>
</clipPath>
</defs>
</svg>
