<svg width="17" height="16" viewBox="0 0 17 16" fill="none" xmlns="http://www.w3.org/2000/svg">
<path d="M15.3125 0.999786C15.3125 0.596662 15.0688 0.231037 14.6938 0.0747866C14.3188 -0.0814634 13.8906 0.00603655 13.6031 0.290412L12.2406 1.65604C10.7406 3.15604 8.70625 3.99979 6.58437 3.99979H6.3125H5.3125H2.3125C1.20938 3.99979 0.3125 4.89666 0.3125 5.99979V8.99979C0.3125 10.1029 1.20938 10.9998 2.3125 10.9998V14.9998C2.3125 15.5529 2.75938 15.9998 3.3125 15.9998H5.3125C5.86562 15.9998 6.3125 15.5529 6.3125 14.9998V10.9998H6.58437C8.70625 10.9998 10.7406 11.8435 12.2406 13.3435L13.6031 14.706C13.8906 14.9935 14.3188 15.0779 14.6938 14.9217C15.0688 14.7654 15.3125 14.4029 15.3125 13.9967V9.38729C15.8938 9.11229 16.3125 8.37166 16.3125 7.49979C16.3125 6.62791 15.8938 5.88729 15.3125 5.61229V0.999786ZM13.3125 3.39666V7.49979V11.6029C11.475 9.93104 9.07812 8.99979 6.58437 8.99979H6.3125V5.99979H6.58437C9.07812 5.99979 11.475 5.06854 13.3125 3.39666Z" fill="white"/>
</svg>
