<svg width="18" height="16" viewBox="0 0 18 16" fill="none" xmlns="http://www.w3.org/2000/svg">
<path d="M10.5875 11.4709C11.4406 11.349 12.2094 10.8647 12.6875 10.1303L17.7406 2.31466C18.1344 1.70529 18.0344 0.899038 17.5031 0.402163C16.9719 -0.0947123 16.1625 -0.138462 15.5813 0.299038L8.18437 5.84904C7.43437 6.41154 6.99062 7.28966 6.98438 8.22716L10.5875 11.4709ZM9.975 12.2647L6.35 9.00216C4.48125 9.07091 2.98438 10.6115 2.98438 12.499C2.98438 12.6209 2.99062 12.7428 3.00312 12.8615C3.05938 13.4084 2.68438 13.999 2.13438 13.999H1.98438C1.43125 13.999 0.984375 14.4459 0.984375 14.999C0.984375 15.5522 1.43125 15.999 1.98438 15.999H6.48438C8.41875 15.999 9.98438 14.4334 9.98438 12.499C9.98438 12.4209 9.98125 12.3428 9.97812 12.2647H9.975Z" fill="white"/>
</svg>
