<svg width="36" height="28" viewBox="0 0 36 28" fill="none" xmlns="http://www.w3.org/2000/svg">
<path d="M33.0977 14.5599C36.4082 11.2493 36.4082 5.888 33.0977 2.57745C30.168 -0.352236 25.5508 -0.733095 22.1816 1.67511L22.0879 1.73956C21.2441 2.34308 21.0508 3.51495 21.6543 4.35284C22.2578 5.19073 23.4297 5.38995 24.2676 4.78644L24.3613 4.72198C26.2422 3.38019 28.8145 3.59112 30.4434 5.22589C32.2891 7.07159 32.2891 10.0599 30.4434 11.9056L23.8691 18.4915C22.0234 20.3372 19.0352 20.3372 17.1895 18.4915C15.5547 16.8567 15.3438 14.2845 16.6855 12.4095L16.75 12.3157C17.3535 11.472 17.1543 10.3001 16.3164 9.70245C15.4785 9.1048 14.3008 9.29815 13.7031 10.136L13.6387 10.2298C11.2246 13.5931 11.6055 18.2103 14.5352 21.14C17.8457 24.4505 23.207 24.4505 26.5176 21.14L33.0977 14.5599ZM2.65234 13.1888C-0.658203 16.4993 -0.658203 21.8607 2.65234 25.1712C5.58203 28.1009 10.1992 28.4818 13.5684 26.0735L13.6621 26.0091C14.5059 25.4056 14.6992 24.2337 14.0957 23.3958C13.4922 22.5579 12.3203 22.3587 11.4824 22.9622L11.3887 23.0267C9.50781 24.3685 6.93555 24.1575 5.30664 22.5228C3.46094 20.6712 3.46094 17.6829 5.30664 15.8372L11.8809 9.25714C13.7266 7.41144 16.7148 7.41144 18.5605 9.25714C20.1953 10.8919 20.4062 13.4642 19.0645 15.345L19 15.4388C18.3965 16.2825 18.5957 17.4544 19.4336 18.0521C20.2715 18.6497 21.4492 18.4564 22.0469 17.6185L22.1113 17.5247C24.5254 14.1556 24.1445 9.53839 21.2148 6.6087C17.9043 3.29815 12.543 3.29815 9.23242 6.6087L2.65234 13.1888Z" fill="white"/>
</svg>
