<svg width="35" height="27" viewBox="0 0 35 27" fill="none" xmlns="http://www.w3.org/2000/svg">
<path d="M29.3592 2.96699C29.3497 2.94843 29.3338 2.93389 29.3145 2.92597C27.0807 1.90109 24.7234 1.17026 22.3016 0.751793C22.2796 0.747702 22.2569 0.750653 22.2366 0.760226C22.2164 0.769798 22.1997 0.785505 22.1889 0.805113C21.8679 1.3877 21.5766 1.98612 21.3159 2.59808C18.7053 2.2018 16.0499 2.2018 13.4394 2.59808C13.177 1.98457 12.8809 1.386 12.5526 0.805113C12.5413 0.785931 12.5245 0.770586 12.5044 0.761076C12.4843 0.751565 12.4618 0.74833 12.4398 0.751793C10.0178 1.16939 7.66034 1.90026 5.42685 2.92603C5.40773 2.93414 5.39159 2.94798 5.38068 2.96564C0.914133 9.63584 -0.309422 16.142 0.290812 22.5677C0.292501 22.5834 0.297339 22.5986 0.30504 22.6125C0.31274 22.6263 0.323145 22.6385 0.335636 22.6482C2.93646 24.5739 5.84552 26.0438 8.93866 26.9952C8.96045 27.0018 8.98371 27.0015 9.00532 26.9944C9.02693 26.9873 9.04585 26.9738 9.05954 26.9556C9.72388 26.0517 10.3125 25.0945 10.8195 24.0938C10.8265 24.0801 10.8305 24.065 10.8312 24.0496C10.8319 24.0342 10.8294 24.0189 10.8237 24.0046C10.8181 23.9902 10.8095 23.9773 10.7985 23.9665C10.7874 23.9557 10.7743 23.9474 10.7598 23.9421C9.83155 23.587 8.93288 23.1588 8.07224 22.6617C8.0566 22.6525 8.04347 22.6396 8.03401 22.6241C8.02454 22.6087 8.01903 22.5911 8.01796 22.573C8.01688 22.5549 8.02029 22.5368 8.02786 22.5203C8.03544 22.5039 8.04696 22.4895 8.0614 22.4785C8.24198 22.3432 8.42269 22.2025 8.59513 22.0603C8.61045 22.0477 8.62899 22.0396 8.64866 22.037C8.66833 22.0343 8.68834 22.0372 8.70646 22.0453C14.3449 24.6186 20.4492 24.6186 26.0209 22.0453C26.0391 22.0367 26.0593 22.0334 26.0793 22.0358C26.0992 22.0382 26.1181 22.0463 26.1336 22.059C26.3061 22.2011 26.4868 22.3432 26.6687 22.4785C26.6832 22.4894 26.6949 22.5037 26.7026 22.5201C26.7103 22.5365 26.7138 22.5545 26.7128 22.5726C26.7119 22.5907 26.7065 22.6083 26.6972 22.6239C26.6878 22.6394 26.6748 22.6524 26.6592 22.6617C25.8005 23.163 24.9011 23.5909 23.9704 23.9408C23.9559 23.9463 23.9428 23.9548 23.9318 23.9657C23.9209 23.9766 23.9124 23.9897 23.9068 24.0042C23.9013 24.0186 23.8989 24.0341 23.8997 24.0495C23.9006 24.0649 23.9047 24.08 23.9118 24.0938C24.4272 25.0889 25.015 26.0449 25.6704 26.954C25.6837 26.9727 25.7025 26.9867 25.7242 26.994C25.7459 27.0014 25.7694 27.0018 25.7913 26.9951C28.89 26.0469 31.8041 24.5768 34.4082 22.6482C34.4209 22.639 34.4314 22.6271 34.4392 22.6134C34.4469 22.5998 34.4516 22.5846 34.453 22.569C35.1716 15.1403 33.25 8.68744 29.3592 2.96699ZM11.6616 18.6551C9.964 18.6551 8.56525 17.0973 8.56525 15.1841C8.56525 13.2709 9.93687 11.7129 11.6616 11.7129C13.3998 11.7129 14.785 13.2844 14.7578 15.184C14.7578 17.0973 13.3862 18.6551 11.6616 18.6551ZM23.1096 18.6551C21.4121 18.6551 20.0134 17.0973 20.0134 15.1841C20.0134 13.2709 21.385 11.7129 23.1096 11.7129C24.8479 11.7129 26.2331 13.2844 26.2059 15.184C26.2059 17.0973 24.8479 18.6551 23.1096 18.6551Z" fill="white"/>
</svg>
