<svg width="31" height="31" viewBox="0 0 31 31" fill="none" xmlns="http://www.w3.org/2000/svg">
<path d="M13.8652 1.20801C14.6797 0.915039 15.5703 0.915039 16.3906 1.20801L27.6406 5.22754C29.1289 5.76074 30.125 7.17285 30.125 8.76074V22.9873C30.125 24.5693 29.1289 25.9873 27.6348 26.5205L16.3848 30.54C15.5703 30.833 14.6797 30.833 13.8594 30.54L2.60938 26.5205C1.12109 25.9873 0.125 24.5752 0.125 22.9873V8.76074C0.125 7.17871 1.12109 5.76074 2.61523 5.22754L13.8652 1.20801ZM15.125 4.74121L4.94727 8.37402L15.125 12.0068L25.3027 8.37402L15.125 4.74121ZM17 26.3389L26.375 22.9932V11.9775L17 15.3232V26.3389Z" fill="white"/>
</svg>
