<svg width="38" height="31" viewBox="0 0 38 31" fill="none" xmlns="http://www.w3.org/2000/svg">
<path d="M15.125 4.625H22.625V8.375H15.125V4.625ZM14.1875 0.875C12.6348 0.875 11.375 2.13477 11.375 3.6875V9.3125C11.375 10.8652 12.6348 12.125 14.1875 12.125H17V14H2C0.962891 14 0.125 14.8379 0.125 15.875C0.125 16.9121 0.962891 17.75 2 17.75H7.625V19.625H4.8125C3.25977 19.625 2 20.8848 2 22.4375V28.0625C2 29.6152 3.25977 30.875 4.8125 30.875H14.1875C15.7402 30.875 17 29.6152 17 28.0625V22.4375C17 20.8848 15.7402 19.625 14.1875 19.625H11.375V17.75H26.375V19.625H23.5625C22.0098 19.625 20.75 20.8848 20.75 22.4375V28.0625C20.75 29.6152 22.0098 30.875 23.5625 30.875H32.9375C34.4902 30.875 35.75 29.6152 35.75 28.0625V22.4375C35.75 20.8848 34.4902 19.625 32.9375 19.625H30.125V17.75H35.75C36.7871 17.75 37.625 16.9121 37.625 15.875C37.625 14.8379 36.7871 14 35.75 14H20.75V12.125H23.5625C25.1152 12.125 26.375 10.8652 26.375 9.3125V3.6875C26.375 2.13477 25.1152 0.875 23.5625 0.875H14.1875ZM5.75 27.125V23.375H13.25V27.125H5.75ZM24.5 23.375H32V27.125H24.5V23.375Z" fill="white"/>
</svg>
