<svg width="32" height="33" viewBox="0 0 32 33" fill="none" xmlns="http://www.w3.org/2000/svg">
<path d="M24 0.875C28.4183 0.875 32 4.45672 32 8.875V24.875C32 29.2933 28.4183 32.875 24 32.875H8C3.58172 32.875 0 29.2933 0 24.875V8.875C0 4.45672 3.58172 0.875 8 0.875H24Z" fill="url(#paint0_linear_319_27652)"/>
<path d="M24 0.875C28.4183 0.875 32 4.45672 32 8.875V24.875C32 29.2933 28.4183 32.875 24 32.875H8C3.58172 32.875 0 29.2933 0 24.875V8.875C0 4.45672 3.58172 0.875 8 0.875H24Z" stroke="#E5E7EB"/>
<g clip-path="url(#clip0_319_27652)">
<g clip-path="url(#clip1_319_27652)">
<path d="M16 8.875C18.1217 8.875 20.1566 9.71785 21.6569 11.2181C23.1571 12.7184 24 14.7533 24 16.875C24 18.9967 23.1571 21.0316 21.6569 22.5319C20.1566 24.0321 18.1217 24.875 16 24.875C13.8783 24.875 11.8434 24.0321 10.3431 22.5319C8.84285 21.0316 8 18.9967 8 16.875C8 14.7533 8.84285 12.7184 10.3431 11.2181C11.8434 9.71785 13.8783 8.875 16 8.875ZM15.25 12.625V16.875C15.25 17.125 15.375 17.3594 15.5844 17.5L18.5844 19.5C18.9281 19.7312 19.3938 19.6375 19.625 19.2906C19.8562 18.9437 19.7625 18.4812 19.4156 18.25L16.75 16.475V12.625C16.75 12.2094 16.4156 11.875 16 11.875C15.5844 11.875 15.25 12.2094 15.25 12.625Z" fill="white"/>
</g>
</g>
<defs>
<linearGradient id="paint0_linear_319_27652" x1="0" y1="16.875" x2="32" y2="16.875" gradientUnits="userSpaceOnUse">
<stop stop-color="#374151"/>
<stop offset="1" stop-color="#111827"/>
</linearGradient>
<clipPath id="clip0_319_27652">
<rect width="16" height="16" fill="white" transform="translate(8 8.875)"/>
</clipPath>
<clipPath id="clip1_319_27652">
<path d="M8 8.875H24V24.875H8V8.875Z" fill="white"/>
</clipPath>
</defs>
</svg>
