<svg width="40" height="40" viewBox="0 0 40 40" fill="none" xmlns="http://www.w3.org/2000/svg">
<path d="M20 0C31.0457 0 40 8.95431 40 20C40 31.0457 31.0457 40 20 40C8.95431 40 0 31.0457 0 20C0 8.95431 8.95431 0 20 0Z" fill="#E5E7EB"/>
<path d="M20 0C31.0457 0 40 8.95431 40 20C40 31.0457 31.0457 40 20 40C8.95431 40 0 31.0457 0 20C0 8.95431 8.95431 0 20 0Z" stroke="#E5E7EB"/>
<path d="M28 28H12V12H28V28Z" stroke="#E5E7EB"/>
<g clip-path="url(#clip0_319_26722)">
<path d="M20 12C22.1217 12 24.1566 12.8429 25.6569 14.3431C27.1571 15.8434 28 17.8783 28 20C28 22.1217 27.1571 24.1566 25.6569 25.6569C24.1566 27.1571 22.1217 28 20 28C17.8783 28 15.8434 27.1571 14.3431 25.6569C12.8429 24.1566 12 22.1217 12 20C12 17.8783 12.8429 15.8434 14.3431 14.3431C15.8434 12.8429 17.8783 12 20 12ZM19.25 15.75V20C19.25 20.25 19.375 20.4844 19.5844 20.625L22.5844 22.625C22.9281 22.8562 23.3938 22.7625 23.625 22.4156C23.8562 22.0687 23.7625 21.6062 23.4156 21.375L20.75 19.6V15.75C20.75 15.3344 20.4156 15 20 15C19.5844 15 19.25 15.3344 19.25 15.75Z" fill="#374151"/>
</g>
<defs>
<clipPath id="clip0_319_26722">
<path d="M12 12H28V28H12V12Z" fill="white"/>
</clipPath>
</defs>
</svg>
