<svg width="60" height="61" viewBox="0 0 60 61" fill="none" xmlns="http://www.w3.org/2000/svg">
<g clip-path="url(#clip0_319_27521)">
<g clip-path="url(#clip1_319_27521)">
<path d="M0 30.4375C0 22.481 3.16071 14.8504 8.7868 9.2243C14.4129 3.59821 22.0435 0.4375 30 0.4375C37.9565 0.4375 45.5871 3.59821 51.2132 9.2243C56.8393 14.8504 60 22.481 60 30.4375C60 38.394 56.8393 46.0246 51.2132 51.6507C45.5871 57.2768 37.9565 60.4375 30 60.4375C22.0435 60.4375 14.4129 57.2768 8.7868 51.6507C3.16071 46.0246 0 38.394 0 30.4375ZM22.0664 17.6758C21.1758 18.168 20.625 19.1172 20.625 20.125V40.75C20.625 41.7695 21.1758 42.707 22.0664 43.1992C22.957 43.6914 24.0352 43.6797 24.9141 43.1406L41.7891 32.8281C42.6211 32.3125 43.1367 31.4102 43.1367 30.4258C43.1367 29.4414 42.6211 28.5391 41.7891 28.0234L24.9141 17.7109C24.0469 17.1836 22.957 17.1602 22.0664 17.6523V17.6758Z" fill="white"/>
</g>
</g>
<defs>
<clipPath id="clip0_319_27521">
<rect width="60" height="60" fill="white" transform="translate(0 0.4375)"/>
</clipPath>
<clipPath id="clip1_319_27521">
<path d="M0 0.4375H60V60.4375H0V0.4375Z" fill="white"/>
</clipPath>
</defs>
</svg>
