<svg width="16" height="16" viewBox="0 0 16 16" fill="none" xmlns="http://www.w3.org/2000/svg">
<g clip-path="url(#clip0_319_27417)">
<path d="M4.89378 12.0274L3.92816 11.0617C3.66253 10.7961 3.56878 10.4117 3.68753 10.0555C3.78128 9.77736 3.90628 9.41486 4.05628 8.99924H0.75003C0.48128 8.99924 0.23128 8.85549 0.0969053 8.62111C-0.0374697 8.38674 -0.0343447 8.09924 0.103155 7.86799L1.74378 5.10236C2.15003 4.41799 2.88441 3.99924 3.67816 3.99924H6.25003C6.32503 3.87424 6.40003 3.75861 6.47503 3.64611C9.03441 -0.128889 12.8469 -0.253888 15.1219 0.164862C15.4844 0.230487 15.7657 0.514862 15.8344 0.877362C16.2532 3.15549 16.125 6.96486 12.3532 9.52424C12.2438 9.59924 12.125 9.67424 12 9.74924V12.3211C12 13.1149 11.5813 13.8524 10.8969 14.2555L8.13128 15.8961C7.90003 16.0336 7.61253 16.0367 7.37816 15.9024C7.14378 15.768 7.00003 15.5211 7.00003 15.2492V11.8992C6.55941 12.0524 6.17503 12.1774 5.88441 12.2711C5.53441 12.3836 5.15316 12.2867 4.89066 12.0274H4.89378ZM12 5.24924C12.3316 5.24924 12.6495 5.11754 12.8839 4.88312C13.1183 4.6487 13.25 4.33076 13.25 3.99924C13.25 3.66772 13.1183 3.34977 12.8839 3.11535C12.6495 2.88093 12.3316 2.74924 12 2.74924C11.6685 2.74924 11.3506 2.88093 11.1161 3.11535C10.8817 3.34977 10.75 3.66772 10.75 3.99924C10.75 4.33076 10.8817 4.6487 11.1161 4.88312C11.3506 5.11754 11.6685 5.24924 12 5.24924Z" fill="black"/>
</g>
<defs>
<clipPath id="clip0_319_27417">
<path d="M0 0H16V16H0V0Z" fill="white"/>
</clipPath>
</defs>
</svg>
